<?xml version="1.0" encoding="UTF-8" standalone="no"?><!DOCTYPE svg PUBLIC "-//W3C//DTD SVG 1.1//EN" "http://www.w3.org/Graphics/SVG/1.1/DTD/svg11.dtd"><svg width="100%" height="100%" viewBox="0 0 30 33" version="1.1" xmlns="http://www.w3.org/2000/svg" xmlns:xlink="http://www.w3.org/1999/xlink" xml:space="preserve" xmlns:serif="http://www.serif.com/" style="fill-rule:evenodd;clip-rule:evenodd;stroke-linejoin:round;stroke-miterlimit:2;"><circle cx="17.507" cy="13.233" r="7.236" style="fill:#006dff;"/><path d="M29.717,31.284c-0.082,0.463 -0.484,0.8 -0.953,0.8c-3.631,0.002 -18.77,0.002 -22.511,0.002c-0.491,0 -0.906,-0.362 -0.973,-0.848c-0.139,-0.997 -0.185,-1.807 -0.185,-2.824c0,-4.053 5.562,-7.344 12.413,-7.344c6.851,0 12.413,3.291 12.413,7.344c0,1.023 -0.029,1.882 -0.203,2.869Z" style="fill:#006dff;"/><circle cx="6.616" cy="6.616" r="6.616" style="fill:#00ffc6;"/><g transform="matrix(10,0,0,10,12.38143,10.11643)"></g><text x="0.381px" y="10.116px" style="font-family:'BebasNeue-Regular', 'Bebas Neue', sans-serif;font-size:10px;">150</text></svg>