<?xml version="1.0" encoding="UTF-8" standalone="no"?>
<!DOCTYPE svg PUBLIC "-//W3C//DTD SVG 1.1//EN" "http://www.w3.org/Graphics/SVG/1.1/DTD/svg11.dtd">
<svg width="100%" height="100%" viewBox="0 0 1302 1610" version="1.1" xmlns="http://www.w3.org/2000/svg" xmlns:xlink="http://www.w3.org/1999/xlink" xml:space="preserve" xmlns:serif="http://www.serif.com/" style="fill-rule:evenodd;clip-rule:evenodd;stroke-linejoin:round;stroke-miterlimit:2;">
    <g transform="matrix(1,0,0,1,0,-0.188363)">
        <path d="M1302,323.06L1302,328.56C1301.56,344.407 1300.7,358.03 1299.42,369.43C1287.21,478.14 1233.56,570.02 1151.12,640.04C1150.86,640.267 1150.73,640.553 1150.73,640.9C1150.54,696.64 1152.81,752.77 1160.81,807.99C1165.09,837.5 1171.38,866.33 1182.48,894.54C1192.8,920.76 1209.14,944.28 1237.87,951.93C1261.06,958.11 1285.72,962.1 1292.63,989.57C1301.59,1025.21 1281.61,1049.55 1259.53,1074.24C1258.47,1075.42 1257.27,1077.4 1257.39,1078.76C1272.55,1254.12 1232.11,1440.83 1070.43,1537.95C982.02,1591.05 876.49,1609.96 774.5,1609.79C756.713,1609.85 741.693,1609.62 729.44,1609.11C528.47,1600.64 270.17,1501.92 240.66,1269.52C240.58,1268.89 240.277,1268.4 239.75,1268.05C205.94,1245.67 183.43,1212.31 170.5,1174.18C170.38,1173.83 170.11,1173.56 169.77,1173.44C167.083,1172.47 164.547,1171.09 162.16,1169.31C149.907,1160.16 138.133,1150.44 126.84,1140.14C80.28,1097.68 50.06,1043.1 31.61,983.33C8.57,908.64 1.44,830.21 0,752.44L0,716.19C0.61,703.87 0.7,689.69 1.12,679.27C2.953,634.457 6.247,590.367 11,547C17.02,492.14 28.34,437.72 46.96,385.62C79.41,294.77 144.38,205.22 251.99,209.77C311.85,212.29 368.63,243.75 415.6,279.55C415.873,279.757 416.143,279.753 416.41,279.54C587.6,144.23 833.93,141.15 1019.09,249.02C1019.17,249.065 1019.25,249.089 1019.34,249.089C1019.57,249.089 1019.77,248.925 1019.81,248.7C1031.14,188.72 1050.37,128 1079.23,73.99C1095.35,43.84 1124.2,2.01 1162.18,0.25C1189.12,-0.99 1209.43,16.64 1222.54,38.64C1223.84,40.82 1226.96,46.717 1231.89,56.33C1274.26,138.86 1301.25,229.79 1302,323.06ZM1237.03,238.16C1228.08,189.78 1211.2,142.03 1190,97.73C1186.84,91.123 1181.84,81.123 1174.99,67.73C1172.57,63 1168.89,56.12 1163.46,56.05C1163.14,56.05 1162.86,56.153 1162.61,56.36C1158.76,59.72 1154.76,62.82 1151.48,66.61C1137.98,82.23 1127.66,100.36 1118.71,119.45C1095.08,169.86 1079.29,225.64 1071.37,279.39C1070.48,285.37 1069.85,291.25 1069.49,297.68C1068.46,315.85 1052.82,327.8 1035.07,323.9C1032.55,323.347 1029.67,322.043 1026.42,319.99C1016.81,313.93 1006.48,306.71 997.81,301.47C937.303,264.91 871.61,241.927 800.73,232.52C786.543,230.64 773.16,229.497 760.58,229.09C760.247,229.077 759.937,228.987 759.65,228.82C759.297,228.607 758.997,228.5 758.75,228.5L713.57,228.5C713.243,228.5 712.963,228.617 712.73,228.85C712.21,229.35 698.75,229.56 696.88,229.7C600.84,237.11 509.31,272.37 436.61,335.54C427.56,343.4 417.43,346.33 405.87,341.82C403.417,340.86 400.5,339.017 397.12,336.29C356.64,303.64 314.55,274.69 262.12,266.48C260.08,266.16 257.79,266.44 255.62,266.08C249.83,265.1 240.93,264.82 235.17,266.02C232.6,266.55 229.92,266.2 227.48,266.77C223.96,267.6 220.01,268.13 216.88,268.93C193.59,274.87 172.06,288.46 155.82,306.07C130,334.08 111.19,370.57 98.7,406.2C87.22,438.933 78.543,473.38 72.67,509.54C70.683,521.773 68.383,539.427 65.77,562.5C65.083,568.56 64.68,572.893 64.56,575.5C64.527,576.18 64.343,577.16 64.01,578.44C63.32,581.1 64.25,583.44 63.12,586.09C62.987,586.403 62.957,586.727 63.03,587.06C63.7,590.05 62.52,592.45 62.57,595.25C62.603,596.863 62.447,598.457 62.1,600.03C61.57,602.46 62.01,604.63 61.62,606.99C61.367,608.523 61.27,610 61.33,611.42C61.45,614.42 60.56,617.05 60.51,619.88C60.36,627.85 59.35,634.09 59.21,644.23C59.203,644.55 59.107,644.843 58.92,645.11C58.09,646.31 58.08,660.68 58.08,663.24C58.09,667.36 57.25,671.44 57.27,675.27C57.29,679.11 57.72,683.89 56.79,687.59C56.46,688.9 56.79,691.39 56.77,692.26C56.59,702.447 56.427,712.633 56.28,722.82C55.88,750.62 56.563,778.393 58.33,806.14C58.48,808.59 58.38,811.8 58.68,814.61C59.12,818.723 59.343,820.823 59.35,820.91C60.063,830.723 61.34,843.173 63.18,858.26C71.46,926.2 88.25,995.36 126.57,1052.97C132.837,1062.4 139.587,1071.45 146.82,1080.13C148.16,1081.74 149.707,1083.18 151.46,1084.45C151.526,1084.5 151.604,1084.52 151.685,1084.52C151.899,1084.52 152.075,1084.35 152.075,1084.13C152.075,1084.07 152.059,1084.01 152.03,1083.95C150.54,1081.24 151.09,1078.27 150.9,1075.95C150,1064.93 149.613,1053.9 149.74,1042.85C149.75,1041.95 150.37,1041.34 150.38,1040.59C151.11,993.68 167.29,945.22 202.77,914.55C221.563,898.31 243.733,888.433 269.28,884.92C293.073,881.653 315.91,885.233 337.79,895.66C338.082,895.798 338.435,895.715 338.64,895.46C343.62,889.03 349.88,882.49 354.18,876.58C404.97,806.75 404.61,717.55 384.77,638.65C382.86,631.04 379.77,620.9 377.49,611.95C373.7,597.04 376.86,580.08 391.37,572.38C403.52,565.93 416.68,568.65 426.03,578.85C459.603,615.51 498.733,644.873 543.42,666.94C543.667,667.06 543.877,667.223 544.05,667.43C544.19,667.583 544.337,667.697 544.49,667.77C596.543,692.81 651.317,708.517 708.81,714.89C714.11,715.477 719.413,716.057 724.72,716.63C726.89,716.86 729.51,716.56 731.88,716.9C741.67,718.27 752.04,718.05 761.93,718.3C772.29,718.56 782.3,718.21 792.65,718.21C797.39,718.21 803.24,717.19 808.7,717.56C809.02,717.58 809.333,717.533 809.64,717.42C810.327,717.167 811.45,717.003 813.01,716.93C825.837,716.31 841.263,714.58 859.29,711.74C972.39,693.9 1082.49,641.57 1158.54,554.29C1203.18,503.043 1230.71,444.013 1241.12,377.2C1241.53,374.58 1241.75,370.69 1242.45,367.47C1242.89,365.48 1242.42,363.39 1243.38,361.31C1243.52,361.003 1243.58,360.68 1243.55,360.34C1243.37,358.247 1243.44,356.17 1243.77,354.11C1244.1,351.95 1243.79,349.78 1244.17,347.62C1245.01,342.75 1244.74,338.1 1244.75,333.2C1244.75,332.873 1244.83,332.57 1244.99,332.29C1246.46,329.66 1245.52,314.8 1245.47,311.01C1245.45,309.36 1244.62,308.12 1244.74,306.26C1245.13,300.21 1244.12,292.95 1243.85,288.25C1242.93,272.32 1240.35,255.8 1237.63,241.38C1237.56,241.06 1237.57,240.74 1237.65,240.42C1237.77,239.907 1237.68,239.443 1237.39,239.03C1237.2,238.77 1237.08,238.48 1237.03,238.16ZM1202.41,1097.82C1202.64,1095 1202.44,1091.06 1201.8,1086C1199.74,1069.7 1206.17,1052.54 1215.9,1039.89C1222.64,1031.12 1230.53,1023.37 1236.33,1013.89C1236.93,1012.92 1237.41,1011.93 1237.78,1010.94C1237.82,1010.82 1237.84,1010.7 1237.84,1010.58C1237.84,1010.1 1237.52,1009.68 1237.05,1009.56C1225.98,1006.74 1214.18,1003.6 1204.32,999.22C1155.96,977.75 1132.12,929.56 1118.99,881.04C1111.88,854.747 1106.69,828.067 1103.44,801C1102.24,791.07 1100.67,781 1100.28,771C1100.19,768.65 1099.43,765.99 1099.48,763.01C1099.52,760.79 1099.21,757.557 1098.56,753.31C1098.1,750.31 1098.53,747.1 1098.06,743.98C1097.01,736.98 1097.76,729.83 1096.86,722.79C1096.03,716.31 1096.26,710.43 1096.23,704.11C1096.23,704.077 1096.22,704.05 1096.2,704.03C1096.13,703.983 1096.06,703.933 1095.99,703.88C1095.83,703.753 1095.75,703.587 1095.75,703.38C1095.8,697.853 1095.73,692.333 1095.56,686.82C1095.51,685.167 1095.31,683.883 1094.96,682.97C1094.81,682.57 1094.55,682.483 1094.19,682.71C1018.81,730.61 932.06,759.72 843.45,769.63C841.69,769.83 838.4,769.88 835.97,770.43C831.23,771.5 825.87,770.97 821.13,771.71C814.14,772.81 806.79,772.33 799.77,772.97C782.68,774.54 764.45,773.52 747.24,773.44C746.173,773.44 744.653,773.277 742.68,772.95C739.44,772.41 736.31,772.87 732.96,772.29C730.12,771.8 725.06,772.71 722.8,771.53C722.5,771.377 722.183,771.327 721.85,771.38C718.81,771.89 716.26,770.83 713.26,770.82C711.88,770.813 710.53,770.597 709.21,770.17C708.897,770.07 708.58,770.043 708.26,770.09C705.26,770.54 702.18,769.77 699.2,769.37C691.96,768.403 684.727,767.363 677.5,766.25C596.13,753.77 516.79,723.79 449.92,675.33C449.868,675.291 449.808,675.264 449.745,675.249C449.489,675.189 449.228,675.355 449.167,675.617C449.152,675.681 449.15,675.746 449.16,675.81C451.633,690.877 452.953,706.13 453.12,721.57C453.13,722.51 453.75,723.45 453.75,724.5C453.75,730.767 453.753,737.033 453.76,743.3C453.76,744.43 453.01,745.1 453.02,745.99C453.127,753.883 452.49,763.65 451.11,775.29C447.37,806.917 439.193,836.45 426.58,863.89C415.733,887.497 401.67,908.987 384.39,928.36C382.577,930.393 380.607,932.153 378.48,933.64C378.183,933.849 378.091,934.254 378.27,934.57C383.8,944.13 388.82,957.05 386.77,967.61C382.13,991.57 350.77,998.31 336.57,978.41C333.46,974.06 331.85,967.87 329.63,962.51C325.7,953.02 315.62,946.36 306.49,942.99C303.37,941.84 299.48,941.26 295.96,940.3C294.25,939.84 292.7,940.21 291,939.88C289.247,939.547 288.033,939.387 287.36,939.4C235.72,940.64 212.87,982.89 207.38,1028.31C206.807,1033.1 206.52,1039.57 206.52,1047.73C206.527,1054.23 206.483,1060.73 206.39,1067.22C206.383,1068 206.5,1068.96 206.74,1070.11C207.23,1072.44 207.04,1075.91 207.19,1077.42C210.023,1105.51 215.457,1131.8 223.49,1156.29C229.05,1173.25 239.41,1192 252.29,1205.43C270.03,1223.92 293.17,1234.73 318.57,1236.04C333.96,1236.83 349.88,1233.77 363.55,1227.06C367.87,1224.94 374.55,1220.66 377.34,1215.93C377.513,1215.64 377.58,1215.32 377.54,1214.99C377.38,1213.66 377.467,1212.35 377.8,1211.07C381.62,1196.42 393.84,1187 408.86,1188.82C425.22,1190.81 435.21,1205.46 433.15,1221.42C429.23,1251.67 402.27,1273.13 375.49,1282.88C354.817,1290.41 333.463,1293.44 311.43,1291.95C311.197,1291.93 310.977,1291.87 310.77,1291.78C310.503,1291.65 310.22,1291.59 309.92,1291.62C307.553,1291.83 305.26,1291.59 303.04,1290.9C302.921,1290.86 302.798,1290.85 302.674,1290.85C302.005,1290.85 301.457,1291.4 301.46,1292.06C301.461,1292.19 301.481,1292.31 301.52,1292.43C303.18,1297.57 304.51,1303.64 305.95,1308.18C328.65,1379.74 380.12,1433.43 443.45,1471.54C502.16,1506.87 568.52,1529.94 636.26,1542.23C657.253,1546.04 676.383,1548.81 693.65,1550.52C695.51,1550.71 697.94,1550.7 700.12,1551.02C702.5,1551.37 704.1,1551.57 704.92,1551.63C733.48,1553.57 762.077,1554.33 790.71,1553.92C791.48,1553.91 792.33,1553.23 793.11,1553.24C801.497,1553.39 809.87,1553.17 818.23,1552.57C819.35,1552.49 820.27,1552.95 821.52,1552.15C821.8,1551.97 822.11,1551.89 822.45,1551.92C825.11,1552.15 827.757,1552.07 830.39,1551.69C832.51,1551.38 834.74,1551.72 836.89,1551.4C839.357,1551.04 840.61,1550.86 840.65,1550.85C929.55,1542.83 1017.76,1516.91 1086.21,1457.2C1155.77,1396.52 1191.26,1308.39 1200.5,1216.75C1200.9,1212.75 1201.26,1209.57 1201.59,1207.22C1201.81,1205.68 1201.61,1203.92 1201.94,1202.27C1202.28,1200.52 1202.46,1199.32 1202.49,1198.67C1202.78,1190.44 1203.19,1182.21 1203.74,1174C1204.37,1164.39 1204.52,1149.8 1204.18,1130.25C1204.17,1129.6 1204.08,1129.11 1203.92,1128.8C1203.78,1128.51 1203.71,1128.21 1203.72,1127.89C1203.84,1120.83 1203.82,1114.12 1203.1,1107.09C1202.89,1105.1 1203.55,1100.39 1202.61,1098.74C1202.45,1098.45 1202.38,1098.15 1202.41,1097.82Z" style="fill-rule:nonzero;"/>
        <path d="M989.49,758.64C992.343,758.813 995.187,759.143 998.02,759.63C1006.51,761.07 1014.14,762.55 1020.93,764.07C1049.47,770.49 1051.43,809.35 1023.75,818.35C1013.94,821.54 1003.74,817.39 994.01,815.89C981.523,813.97 970.023,813.277 959.51,813.81C935.277,815.037 914.15,823.657 896.13,839.67C883.237,851.123 872.27,864.223 863.23,878.97C859.42,885.2 855.33,893.2 849.86,897.51C839.32,905.81 824.87,905.72 814.54,897.25C808.193,892.05 804.697,884.84 804.05,875.62C804.03,875.287 804.083,874.963 804.21,874.65C804.563,873.803 804.737,872.587 804.73,871C804.73,868.44 805.84,865.23 808.06,861.37C818.167,843.77 829.87,827.62 843.17,812.92C851.223,804.02 860.293,795.843 870.38,788.39C895.693,769.697 924.14,759.383 955.72,757.45C960.013,757.19 966.63,757.243 975.57,757.61C978.423,757.73 980.75,757.87 982.55,758.03C986.637,758.403 988.95,758.607 989.49,758.64Z" style="fill-rule:nonzero;"/>
        <path d="M876.15,953.09C881.3,916.1 898.34,878.19 928.61,854.35C942.063,843.757 957.293,837.253 974.3,834.84C977.553,834.373 983.393,834.397 991.82,834.91C1018.06,836.51 1043.86,854.72 1059.93,874.57C1090.96,912.91 1107.78,962.38 1118.49,1010.01C1119.2,1013.17 1117.91,1020.42 1116.69,1024.12C1113.41,1034.05 1107.94,1042.53 1100.28,1049.55C1084.01,1064.47 1063.25,1075.74 1042.66,1083.9C1041.28,1084.45 1037.97,1086.4 1035.57,1086.98C1034.02,1087.35 1033.02,1087.62 1032.57,1087.77C1016.3,1093.3 999.64,1097.09 982.58,1099.12C981.767,1099.22 979.71,1099.34 976.41,1099.47C973.6,1099.59 970.83,1100.24 968.18,1100.24C962.567,1100.25 956.953,1100.26 951.34,1100.25C948.55,1100.25 945.14,1099.49 941.91,1099.46C937.06,1099.41 932.02,1098.32 927.22,1097.58C916.78,1095.99 908.39,1092.67 902.97,1083.54C890.963,1063.31 882.567,1041.38 877.78,1017.75C877.287,1015.32 876.99,1013.34 876.89,1011.81C876.863,1011.49 876.747,1011.21 876.54,1010.96C874.91,1009.06 869.6,1009.85 867.25,1009.48C863.82,1008.94 860.95,1009.27 857.76,1008.83C856.173,1008.61 854.703,1008.52 853.35,1008.55C836.89,1008.89 821.82,999.31 820.89,981.75C820.15,967.86 828.57,956.72 841.89,952.86C843.15,952.49 845,952.68 846.55,952.06C846.877,951.927 847.213,951.87 847.56,951.89L861.45,952.69C861.77,952.71 862.077,952.79 862.37,952.93L862.72,953.1C862.947,953.207 863.183,953.257 863.43,953.25C865.57,953.237 867.707,953.243 869.84,953.27C871.25,953.29 873.62,954.08 875.57,953.7C875.903,953.633 876.097,953.43 876.15,953.09ZM982.28,1027.28C965.9,981.95 960.61,932.02 995.7,894.01C995.806,893.894 995.865,893.742 995.865,893.585C995.865,893.328 995.708,893.096 995.47,893C981.02,887.24 967.9,892.89 957.46,903.4C942.16,918.81 933.55,943.41 931.23,964.56C930.32,972.82 930.22,980 930.26,987.94C930.26,988.267 930.34,988.57 930.5,988.85C930.893,989.55 931.03,990.517 930.91,991.75C930.71,993.823 931.267,998.32 932.58,1005.24C935.087,1018.44 939.2,1031.12 944.92,1043.28C945.06,1043.58 945.293,1043.7 945.62,1043.65C949.16,1043.04 952.76,1044.24 955.64,1044.25C960.12,1044.26 964.6,1044.25 969.08,1044.24C969.34,1044.24 969.58,1044.17 969.8,1044.02C970.23,1043.72 970.64,1043.47 971.2,1043.49C975.1,1043.66 978.94,1043.29 982.72,1042.39C983.7,1042.16 984.76,1042.13 985.9,1042.31C987.167,1042.51 987.583,1042.01 987.15,1040.8C985.63,1036.55 984.007,1032.04 982.28,1027.28ZM1025.98,971.07C1025.94,974.19 1026.23,977.277 1026.86,980.33C1029.92,995.35 1035.12,1008.73 1040.43,1022.99C1040.54,1023.28 1040.73,1023.35 1041,1023.19C1047.71,1019.18 1054.07,1014.68 1060.09,1009.69C1060.35,1009.47 1060.44,1009.2 1060.36,1008.87C1054.1,983.83 1045.7,959.4 1034.18,936.26C1034.12,936.142 1034,936.067 1033.87,936.067C1033.76,936.067 1033.65,936.125 1033.59,936.22C1030.07,941.44 1027.71,947.117 1026.51,953.25C1026.01,955.81 1024.2,968.7 1025.64,970.21C1025.87,970.457 1025.98,970.743 1025.98,971.07Z" style="fill-rule:nonzero;"/>
        <path d="M968.79,1208.85C976.857,1212.86 985.32,1216.4 994.18,1219.47C1041.3,1235.78 1090.16,1247.62 1138.56,1259.51C1154.14,1263.34 1166.06,1275.33 1166,1292.04C1165.96,1302.27 1160.88,1311.7 1153.48,1318.73C1152.44,1319.73 1151.96,1320.96 1150.93,1321.84C1141.68,1329.73 1131.29,1336.61 1119.78,1342.47C1088.23,1358.54 1055.1,1368.39 1020.39,1372.04C1020.36,1372.04 1018.92,1372.11 1016.07,1372.25C1009.74,1372.55 1003.77,1373.42 996.89,1372.98C992.483,1372.7 987.887,1372.34 983.1,1371.89C927.14,1366.65 886.53,1331.92 872.2,1278.02C869.213,1266.8 867.353,1256.81 866.62,1248.05C864.56,1223.59 879.39,1200 898.35,1185.5C899.963,1184.27 902.09,1182.44 904.73,1180.01C910.24,1174.94 917.51,1172.08 922.7,1169.07C929.593,1165.08 936.6,1161.3 943.72,1157.74C957.01,1151.1 972.02,1154.47 980.29,1166.84C983.757,1172.02 985.287,1177.77 984.88,1184.09C984.24,1194.14 978.87,1202.22 968.77,1208.34C968.682,1208.39 968.628,1208.49 968.628,1208.59C968.628,1208.7 968.691,1208.8 968.79,1208.85ZM1033.76,1313.88C1047.58,1311.43 1061.06,1306.74 1074.1,1301.93C1074.33,1301.84 1074.49,1301.62 1074.49,1301.37C1074.49,1301.1 1074.3,1300.86 1074.04,1300.79C1053.16,1295.65 1032.5,1290.06 1012.07,1284.02C982.1,1275.17 950.33,1264.9 924,1248.13C923.939,1248.09 923.87,1248.06 923.798,1248.05C923.511,1248.01 923.237,1248.21 923.191,1248.51C923.18,1248.58 923.183,1248.65 923.2,1248.72C924.02,1251.97 924.78,1255.13 925.48,1258.2C932.79,1290.39 954.04,1312.87 987.82,1316.31C988.86,1316.42 989.95,1316.97 990.74,1316.99C998.82,1317.18 1010.67,1317.43 1020.3,1316.12C1024.35,1315.57 1028.39,1314.97 1032.42,1314.34C1032.65,1314.3 1032.87,1314.23 1033.07,1314.12C1033.29,1314.01 1033.52,1313.93 1033.76,1313.88Z" style="fill-rule:nonzero;"/>
    </g>
</svg>
