<?xml version="1.0" encoding="UTF-8" standalone="no"?>
<!DOCTYPE svg PUBLIC "-//W3C//DTD SVG 1.1//EN" "http://www.w3.org/Graphics/SVG/1.1/DTD/svg11.dtd">
<svg xmlns="http://www.w3.org/2000/svg" version="1.1" viewBox="0.00 0.00 1302.00 1610.00">
<path fill="#01050b" d="
  M 1302.00 323.06
  L 1302.00 328.56
  Q 1301.34 352.33 1299.42 369.43
  C 1287.21 478.14 1233.56 570.02 1151.12 640.04
  Q 1150.73 640.38 1150.73 640.90
  C 1150.54 696.64 1152.81 752.77 1160.81 807.99
  C 1165.09 837.50 1171.38 866.33 1182.48 894.54
  C 1192.80 920.76 1209.14 944.28 1237.87 951.93
  C 1261.06 958.11 1285.72 962.10 1292.63 989.57
  C 1301.59 1025.21 1281.61 1049.55 1259.53 1074.24
  C 1258.47 1075.42 1257.27 1077.40 1257.39 1078.76
  C 1272.55 1254.12 1232.11 1440.83 1070.43 1537.95
  C 982.02 1591.05 876.49 1609.96 774.50 1609.79
  Q 747.82 1609.88 729.44 1609.11
  C 528.47 1600.64 270.17 1501.92 240.66 1269.52
  Q 240.54 1268.57 239.75 1268.05
  C 205.94 1245.67 183.43 1212.31 170.50 1174.18
  A 1.21 1.18 89.8 0 0 169.77 1173.44
  Q 165.74 1171.98 162.16 1169.31
  Q 143.78 1155.59 126.84 1140.14
  C 80.28 1097.68 50.06 1043.10 31.61 983.33
  C 8.57 908.64 1.44 830.21 0.00 752.44
  L 0.00 716.19
  C 0.61 703.87 0.70 689.69 1.12 679.27
  Q 3.87 612.05 11.00 547.00
  C 17.02 492.14 28.34 437.72 46.96 385.62
  C 79.41 294.77 144.38 205.22 251.99 209.77
  C 311.85 212.29 368.63 243.75 415.60 279.55
  Q 416.01 279.86 416.41 279.54
  C 587.60 144.23 833.93 141.15 1019.09 249.02
  A 0.48 0.48 0.0 0 0 1019.81 248.70
  C 1031.14 188.72 1050.37 128.00 1079.23 73.99
  C 1095.35 43.84 1124.20 2.01 1162.18 0.25
  C 1189.12 -0.99 1209.43 16.64 1222.54 38.64
  Q 1224.49 41.91 1231.89 56.33
  C 1274.26 138.86 1301.25 229.79 1302.00 323.06
  Z
  M 1237.03 238.16
  C 1228.08 189.78 1211.20 142.03 1190.00 97.73
  Q 1185.26 87.82 1174.99 67.73
  C 1172.57 63.00 1168.89 56.12 1163.46 56.05
  Q 1162.98 56.05 1162.61 56.36
  C 1158.76 59.72 1154.76 62.82 1151.48 66.61
  C 1137.98 82.23 1127.66 100.36 1118.71 119.45
  C 1095.08 169.86 1079.29 225.64 1071.37 279.39
  C 1070.48 285.37 1069.85 291.25 1069.49 297.68
  C 1068.46 315.85 1052.82 327.80 1035.07 323.90
  Q 1031.29 323.07 1026.42 319.99
  C 1016.81 313.93 1006.48 306.71 997.81 301.47
  Q 907.05 246.63 800.73 232.52
  Q 779.45 229.70 760.58 229.09
  Q 760.08 229.07 759.65 228.82
  Q 759.12 228.50 758.75 228.50
  Q 736.16 228.50 713.57 228.50
  Q 713.08 228.50 712.73 228.85
  C 712.21 229.35 698.75 229.56 696.88 229.70
  C 600.84 237.11 509.31 272.37 436.61 335.54
  C 427.56 343.40 417.43 346.33 405.87 341.82
  Q 402.19 340.38 397.12 336.29
  C 356.64 303.64 314.55 274.69 262.12 266.48
  C 260.08 266.16 257.79 266.44 255.62 266.08
  C 249.83 265.10 240.93 264.82 235.17 266.02
  C 232.60 266.55 229.92 266.20 227.48 266.77
  C 223.96 267.60 220.01 268.13 216.88 268.93
  C 193.59 274.87 172.06 288.46 155.82 306.07
  C 130.00 334.08 111.19 370.57 98.70 406.20
  Q 81.48 455.30 72.67 509.54
  Q 69.69 527.89 65.77 562.50
  Q 64.74 571.59 64.56 575.50
  Q 64.51 576.52 64.01 578.44
  C 63.32 581.10 64.25 583.44 63.12 586.09
  Q 62.92 586.56 63.03 587.06
  C 63.70 590.05 62.52 592.45 62.57 595.25
  Q 62.62 597.67 62.10 600.03
  C 61.57 602.46 62.01 604.63 61.62 606.99
  Q 61.24 609.29 61.33 611.42
  C 61.45 614.42 60.56 617.05 60.51 619.88
  C 60.36 627.85 59.35 634.09 59.21 644.23
  Q 59.20 644.71 58.92 645.11
  C 58.09 646.31 58.08 660.68 58.08 663.24
  C 58.09 667.36 57.25 671.44 57.27 675.27
  C 57.29 679.11 57.72 683.89 56.79 687.59
  C 56.46 688.90 56.79 691.39 56.77 692.26
  Q 56.50 707.54 56.28 722.82
  Q 55.68 764.52 58.33 806.14
  C 58.48 808.59 58.38 811.80 58.68 814.61
  Q 59.34 820.78 59.35 820.91
  Q 60.42 835.63 63.18 858.26
  C 71.46 926.20 88.25 995.36 126.57 1052.97
  Q 135.97 1067.11 146.82 1080.13
  Q 148.83 1082.54 151.46 1084.45
  A 0.39 0.39 0.0 0 0 152.03 1083.95
  C 150.54 1081.24 151.09 1078.27 150.90 1075.95
  Q 149.55 1059.42 149.74 1042.85
  C 149.75 1041.95 150.37 1041.34 150.38 1040.59
  C 151.11 993.68 167.29 945.22 202.77 914.55
  Q 230.96 890.19 269.28 884.92
  Q 304.97 880.02 337.79 895.66
  A 0.71 0.70 -57.8 0 0 338.64 895.46
  C 343.62 889.03 349.88 882.49 354.18 876.58
  C 404.97 806.75 404.61 717.55 384.77 638.65
  C 382.86 631.04 379.77 620.90 377.49 611.95
  C 373.70 597.04 376.86 580.08 391.37 572.38
  C 403.52 565.93 416.68 568.65 426.03 578.85
  Q 476.39 633.84 543.42 666.94
  Q 543.79 667.12 544.05 667.43
  Q 544.26 667.66 544.49 667.77
  Q 622.57 705.33 708.81 714.89
  Q 716.76 715.77 724.72 716.63
  C 726.89 716.86 729.51 716.56 731.88 716.90
  C 741.67 718.27 752.04 718.05 761.93 718.30
  C 772.29 718.56 782.30 718.21 792.65 718.21
  C 797.39 718.21 803.24 717.19 808.70 717.56
  Q 809.18 717.59 809.64 717.42
  Q 810.67 717.04 813.01 716.93
  Q 832.25 716.00 859.29 711.74
  C 972.39 693.90 1082.49 641.57 1158.54 554.29
  Q 1225.50 477.42 1241.12 377.20
  C 1241.53 374.58 1241.75 370.69 1242.45 367.47
  C 1242.89 365.48 1242.42 363.39 1243.38 361.31
  Q 1243.59 360.85 1243.55 360.34
  Q 1243.28 357.20 1243.77 354.11
  C 1244.10 351.95 1243.79 349.78 1244.17 347.62
  C 1245.01 342.75 1244.74 338.10 1244.75 333.20
  Q 1244.75 332.71 1244.99 332.29
  C 1246.46 329.66 1245.52 314.80 1245.47 311.01
  C 1245.45 309.36 1244.62 308.12 1244.74 306.26
  C 1245.13 300.21 1244.12 292.95 1243.85 288.25
  C 1242.93 272.32 1240.35 255.80 1237.63 241.38
  Q 1237.53 240.90 1237.65 240.42
  Q 1237.83 239.65 1237.39 239.03
  Q 1237.11 238.64 1237.03 238.16
  Z
  M 1202.41 1097.82
  Q 1202.76 1093.59 1201.80 1086.00
  C 1199.74 1069.70 1206.17 1052.54 1215.90 1039.89
  C 1222.64 1031.12 1230.53 1023.37 1236.33 1013.89
  Q 1237.23 1012.43 1237.78 1010.94
  A 1.05 1.05 0.0 0 0 1237.05 1009.56
  C 1225.98 1006.74 1214.18 1003.60 1204.32 999.22
  C 1155.96 977.75 1132.12 929.56 1118.99 881.04
  Q 1108.32 841.60 1103.44 801.00
  C 1102.24 791.07 1100.67 781.00 1100.28 771.00
  C 1100.19 768.65 1099.43 765.99 1099.48 763.01
  Q 1099.54 759.68 1098.56 753.31
  C 1098.10 750.31 1098.53 747.10 1098.06 743.98
  C 1097.01 736.98 1097.76 729.83 1096.86 722.79
  C 1096.03 716.31 1096.26 710.43 1096.23 704.11
  Q 1096.23 704.06 1096.20 704.03
  Q 1096.10 703.96 1095.99 703.88
  Q 1095.75 703.69 1095.75 703.38
  Q 1095.82 695.09 1095.56 686.82
  Q 1095.48 684.34 1094.96 682.97
  Q 1094.73 682.37 1094.19 682.71
  C 1018.81 730.61 932.06 759.72 843.45 769.63
  C 841.69 769.83 838.40 769.88 835.97 770.43
  C 831.23 771.50 825.87 770.97 821.13 771.71
  C 814.14 772.81 806.79 772.33 799.77 772.97
  C 782.68 774.54 764.45 773.52 747.24 773.44
  Q 745.64 773.44 742.68 772.95
  C 739.44 772.41 736.31 772.87 732.96 772.29
  C 730.12 771.80 725.06 772.71 722.80 771.53
  Q 722.35 771.30 721.85 771.38
  C 718.81 771.89 716.26 770.83 713.26 770.82
  Q 711.19 770.81 709.21 770.17
  Q 708.74 770.02 708.26 770.09
  C 705.26 770.54 702.18 769.77 699.20 769.37
  Q 688.34 767.92 677.50 766.25
  C 596.13 753.77 516.79 723.79 449.92 675.33
  A 0.49 0.48 -76.9 0 0 449.16 675.81
  Q 452.87 698.41 453.12 721.57
  C 453.13 722.51 453.75 723.45 453.75 724.50
  Q 453.75 733.90 453.76 743.30
  C 453.76 744.43 453.01 745.10 453.02 745.99
  Q 453.18 757.83 451.11 775.29
  Q 445.50 822.73 426.58 863.89
  Q 410.31 899.30 384.39 928.36
  Q 381.67 931.41 378.48 933.64
  A 0.71 0.71 0.0 0 0 378.27 934.57
  C 383.80 944.13 388.82 957.05 386.77 967.61
  C 382.13 991.57 350.77 998.31 336.57 978.41
  C 333.46 974.06 331.85 967.87 329.63 962.51
  C 325.70 953.02 315.62 946.36 306.49 942.99
  C 303.37 941.84 299.48 941.26 295.96 940.30
  C 294.25 939.84 292.70 940.21 291.00 939.88
  Q 288.37 939.38 287.36 939.40
  C 235.72 940.64 212.87 982.89 207.38 1028.31
  Q 206.52 1035.49 206.52 1047.73
  Q 206.53 1057.48 206.39 1067.22
  Q 206.38 1068.39 206.74 1070.11
  C 207.23 1072.44 207.04 1075.91 207.19 1077.42
  Q 211.44 1119.56 223.49 1156.29
  C 229.05 1173.25 239.41 1192.00 252.29 1205.43
  C 270.03 1223.92 293.17 1234.73 318.57 1236.04
  C 333.96 1236.83 349.88 1233.77 363.55 1227.06
  C 367.87 1224.94 374.55 1220.66 377.34 1215.93
  Q 377.60 1215.49 377.54 1214.99
  Q 377.30 1212.99 377.80 1211.07
  C 381.62 1196.42 393.84 1187.00 408.86 1188.82
  C 425.22 1190.81 435.21 1205.46 433.15 1221.42
  C 429.23 1251.67 402.27 1273.13 375.49 1282.88
  Q 344.48 1294.18 311.43 1291.95
  Q 311.08 1291.92 310.77 1291.78
  Q 310.37 1291.58 309.92 1291.62
  Q 306.37 1291.94 303.04 1290.90
  A 1.22 1.21 -0.3 0 0 301.52 1292.43
  C 303.18 1297.57 304.51 1303.64 305.95 1308.18
  C 328.65 1379.74 380.12 1433.43 443.45 1471.54
  C 502.16 1506.87 568.52 1529.94 636.26 1542.23
  Q 667.75 1547.95 693.65 1550.52
  C 695.51 1550.71 697.94 1550.70 700.12 1551.02
  Q 703.69 1551.54 704.92 1551.63
  Q 747.76 1554.54 790.71 1553.92
  C 791.48 1553.91 792.33 1553.23 793.11 1553.24
  Q 805.69 1553.47 818.23 1552.57
  C 819.35 1552.49 820.27 1552.95 821.52 1552.15
  Q 821.94 1551.88 822.45 1551.92
  Q 826.44 1552.26 830.39 1551.69
  C 832.51 1551.38 834.74 1551.72 836.89 1551.40
  Q 840.59 1550.86 840.65 1550.85
  C 929.55 1542.83 1017.76 1516.91 1086.21 1457.20
  C 1155.77 1396.52 1191.26 1308.39 1200.50 1216.75
  Q 1201.10 1210.75 1201.59 1207.22
  C 1201.81 1205.68 1201.61 1203.92 1201.94 1202.27
  Q 1202.45 1199.65 1202.49 1198.67
  Q 1202.92 1186.32 1203.74 1174.00
  Q 1204.69 1159.58 1204.18 1130.25
  Q 1204.16 1129.27 1203.92 1128.80
  Q 1203.71 1128.37 1203.72 1127.89
  C 1203.84 1120.83 1203.82 1114.12 1203.10 1107.09
  C 1202.89 1105.10 1203.55 1100.39 1202.61 1098.74
  Q 1202.37 1098.31 1202.41 1097.82
  Z"
/>
<path fill="#01050b" d="
  M 989.49 758.64
  Q 993.77 758.90 998.02 759.63
  Q 1010.75 761.79 1020.93 764.07
  C 1049.47 770.49 1051.43 809.35 1023.75 818.35
  C 1013.94 821.54 1003.74 817.39 994.01 815.89
  Q 975.28 813.01 959.51 813.81
  Q 923.16 815.65 896.13 839.67
  Q 876.79 856.85 863.23 878.97
  C 859.42 885.20 855.33 893.20 849.86 897.51
  C 839.32 905.81 824.87 905.72 814.54 897.25
  Q 805.02 889.45 804.05 875.62
  Q 804.02 875.12 804.21 874.65
  Q 804.74 873.38 804.73 871.00
  Q 804.73 867.16 808.06 861.37
  Q 823.22 834.97 843.17 812.92
  Q 855.25 799.57 870.38 788.39
  Q 908.35 760.35 955.72 757.45
  Q 962.16 757.06 975.57 757.61
  Q 979.85 757.79 982.55 758.03
  Q 988.68 758.59 989.49 758.64
  Z"
/>
<path fill="#01050b" d="
  M 876.15 953.09
  C 881.30 916.10 898.34 878.19 928.61 854.35
  Q 948.79 838.46 974.30 834.84
  Q 979.18 834.14 991.82 834.91
  C 1018.06 836.51 1043.86 854.72 1059.93 874.57
  C 1090.96 912.91 1107.78 962.38 1118.49 1010.01
  C 1119.20 1013.17 1117.91 1020.42 1116.69 1024.12
  Q 1111.77 1039.02 1100.28 1049.55
  C 1084.01 1064.47 1063.25 1075.74 1042.66 1083.90
  C 1041.28 1084.45 1037.97 1086.40 1035.57 1086.98
  Q 1033.25 1087.54 1032.57 1087.77
  Q 1008.17 1096.07 982.58 1099.12
  Q 981.36 1099.27 976.41 1099.47
  C 973.60 1099.59 970.83 1100.24 968.18 1100.24
  Q 959.76 1100.26 951.34 1100.25
  C 948.55 1100.25 945.14 1099.49 941.91 1099.46
  C 937.06 1099.41 932.02 1098.32 927.22 1097.58
  C 916.78 1095.99 908.39 1092.67 902.97 1083.54
  Q 884.96 1053.19 877.78 1017.75
  Q 877.04 1014.10 876.89 1011.81
  Q 876.85 1011.33 876.54 1010.96
  C 874.91 1009.06 869.60 1009.85 867.25 1009.48
  C 863.82 1008.94 860.95 1009.27 857.76 1008.83
  Q 855.38 1008.50 853.35 1008.55
  C 836.89 1008.89 821.82 999.31 820.89 981.75
  C 820.15 967.86 828.57 956.72 841.89 952.86
  C 843.15 952.49 845.00 952.68 846.55 952.06
  Q 847.04 951.86 847.56 951.89
  L 861.45 952.69
  Q 861.93 952.72 862.37 952.93
  L 862.72 953.10
  Q 863.06 953.26 863.43 953.25
  Q 866.64 953.23 869.84 953.27
  C 871.25 953.29 873.62 954.08 875.57 953.70
  Q 876.07 953.60 876.15 953.09
  Z
  M 982.28 1027.28
  C 965.90 981.95 960.61 932.02 995.70 894.01
  A 0.63 0.63 0.0 0 0 995.47 893.00
  C 981.02 887.24 967.90 892.89 957.46 903.40
  C 942.16 918.81 933.55 943.41 931.23 964.56
  C 930.32 972.82 930.22 980.00 930.26 987.94
  Q 930.26 988.43 930.50 988.85
  Q 931.09 989.90 930.91 991.75
  Q 930.61 994.86 932.58 1005.24
  Q 936.34 1025.04 944.92 1043.28
  Q 945.13 1043.73 945.62 1043.65
  C 949.16 1043.04 952.76 1044.24 955.64 1044.25
  Q 962.36 1044.26 969.08 1044.24
  Q 969.47 1044.24 969.80 1044.02
  C 970.23 1043.72 970.64 1043.47 971.20 1043.49
  Q 977.05 1043.74 982.72 1042.39
  Q 984.19 1042.04 985.90 1042.31
  Q 987.80 1042.61 987.15 1040.80
  Q 984.87 1034.42 982.28 1027.28
  Z
  M 1025.98 971.07
  Q 1025.92 975.75 1026.86 980.33
  C 1029.92 995.35 1035.12 1008.73 1040.43 1022.99
  Q 1040.59 1023.43 1041.00 1023.19
  Q 1051.06 1017.17 1060.09 1009.69
  Q 1060.48 1009.36 1060.36 1008.87
  C 1054.10 983.83 1045.70 959.40 1034.18 936.26
  A 0.34 0.34 0.0 0 0 1033.59 936.22
  Q 1028.31 944.05 1026.51 953.25
  C 1026.01 955.81 1024.20 968.70 1025.64 970.21
  Q 1025.98 970.58 1025.98 971.07
  Z"
/>
<path fill="#01050b" d="
  M 968.79 1208.85
  Q 980.89 1214.87 994.18 1219.47
  C 1041.30 1235.78 1090.16 1247.62 1138.56 1259.51
  C 1154.14 1263.34 1166.06 1275.33 1166.00 1292.04
  C 1165.96 1302.27 1160.88 1311.70 1153.48 1318.73
  C 1152.44 1319.73 1151.96 1320.96 1150.93 1321.84
  Q 1137.05 1333.68 1119.78 1342.47
  Q 1072.46 1366.57 1020.39 1372.04
  Q 1020.35 1372.04 1016.07 1372.25
  C 1009.74 1372.55 1003.77 1373.42 996.89 1372.98
  Q 990.28 1372.56 983.10 1371.89
  C 927.14 1366.65 886.53 1331.92 872.20 1278.02
  Q 867.72 1261.19 866.62 1248.05
  C 864.56 1223.59 879.39 1200.00 898.35 1185.50
  Q 900.77 1183.65 904.73 1180.01
  C 910.24 1174.94 917.51 1172.08 922.70 1169.07
  Q 933.04 1163.08 943.72 1157.74
  C 957.01 1151.10 972.02 1154.47 980.29 1166.84
  Q 985.49 1174.61 984.88 1184.09
  Q 983.92 1199.16 968.77 1208.34
  A 0.29 0.29 0.0 0 0 968.79 1208.85
  Z
  M 1033.76 1313.88
  C 1047.58 1311.43 1061.06 1306.74 1074.10 1301.93
  A 0.60 0.60 0.0 0 0 1074.04 1300.79
  Q 1042.72 1293.08 1012.07 1284.02
  C 982.10 1275.17 950.33 1264.90 924.00 1248.13
  A 0.54 0.53 -81.1 0 0 923.20 1248.72
  Q 924.43 1253.59 925.48 1258.20
  C 932.79 1290.39 954.04 1312.87 987.82 1316.31
  C 988.86 1316.42 989.95 1316.97 990.74 1316.99
  C 998.82 1317.18 1010.67 1317.43 1020.30 1316.12
  Q 1026.37 1315.29 1032.42 1314.34
  Q 1032.77 1314.28 1033.07 1314.12
  Q 1033.40 1313.95 1033.76 1313.88
  Z"
/>
</svg>
